<?xml version="1.0" encoding="UTF-8"?>
<svg xmlns="http://www.w3.org/2000/svg" viewBox="0 0 400 560" width="400" height="560" role="img" aria-labelledby="title desc">
  <title id="title">Course Content Feedback Form Preview</title>
  <desc id="desc">Preview of the Course Content Feedback Lite template</desc>
  <defs>
    <style>
      text { font-family: Arial, sans-serif; fill: #374151; }
      .label { font-size: 14px; }
      .title { font-size: 24px; font-weight: bold; }
      .placeholder { fill: #9ca3af; }
    </style>
    <g id="star-outline">
      <path d="M9.15316 5.40838C10.4198 3.13613 11.0531 2 12 2C12.9469 2 13.5802 3.13612 14.8468 5.40837L15.1745 5.99623C15.5345 6.64193 15.7144 6.96479 15.9951 7.17781C16.2757 7.39083 16.6251 7.4699 17.3241 7.62805L17.9605 7.77203C20.4201 8.32856 21.65 8.60682 21.9426 9.54773C22.2352 10.4886 21.3968 11.4691 19.7199 13.4299L19.2861 13.9372C18.8096 14.4944 18.5713 14.773 18.4641 15.1177C18.357 15.4624 18.393 15.8341 18.465 16.5776L18.5306 17.2544C18.7841 19.8706 18.9109 21.1787 18.1449 21.7602C17.3788 22.3417 16.2273 21.8115 13.9243 20.7512L13.3285 20.4768C12.6741 20.1755 12.3469 20.0248 12 20.0248C11.6531 20.0248 11.3259 20.1755 10.6715 20.4768L10.0757 20.7512C7.77268 21.8115 6.62118 22.3417 5.85515 21.7602C5.08912 21.1787 5.21588 19.8706 5.4694 17.2544L5.53498 16.5776C5.60703 15.8341 5.64305 15.4624 5.53586 15.1177C5.42868 14.773 5.19043 14.4944 4.71392 13.9372L4.2801 13.4299C2.60325 11.4691 1.76482 10.4886 2.05742 9.54773C2.35002 8.60682 3.57986 8.32856 6.03954 7.77203L6.67589 7.62805C7.37485 7.4699 7.72433 7.39083 8.00494 7.17781C8.28555 6.96479 8.46553 6.64194 8.82547 5.99623L9.15316 5.40838Z" fill="none" stroke="#d1d5db" stroke-width="1.5"/>
    </g>
  </defs>

  <rect width="400" height="550" fill="#ffffff"/>

  <text x="30" y="35" class="title">Course content feedback</text>
  <text x="30" y="60" class="title">form</text>

  <text x="30" y="100" class="label" font-weight="700">Course topic</text>
  <rect x="30" y="110" width="340" height="40" rx="6" fill="#f9fafb" stroke="#d1d5db" stroke-width="1"/>
  <text x="40" y="135" class="label placeholder">Select course topic</text>
  <polygon points="355,125 360,130 365,125" fill="#9ca3af"/>

  <text x="30" y="168" class="label" font-weight="700">Content difficulty level</text>
  <g stroke="#d1d5db" stroke-width="1.5" fill="#ffffff">
    <circle cx="38" cy="184" r="7"/>
    <circle cx="38" cy="206" r="7"/>
    <circle cx="38" cy="228" r="7"/>
  </g>
  <text x="54" y="188" class="label">Too basic</text>
  <text x="54" y="210" class="label">Just right</text>
  <text x="54" y="232" class="label">Too advanced</text>

  <text x="30" y="262" class="label" font-weight="700">Content quality</text>
  <g transform="translate(30, 272)">
    <use href="#star-outline" x="0" y="10" width="22" height="22"/>
    <use href="#star-outline" x="30" y="10" width="22" height="22"/>
    <use href="#star-outline" x="60" y="10" width="22" height="22"/>
    <use href="#star-outline" x="90" y="10" width="22" height="22"/>
    <use href="#star-outline" x="120" y="10" width="22" height="22"/>
  </g>

  <text x="30" y="312" class="label" font-weight="700">Content relevance</text>
  <g transform="translate(30, 322)">
    <use href="#star-outline" x="0" y="10" width="22" height="22"/>
    <use href="#star-outline" x="30" y="10" width="22" height="22"/>
    <use href="#star-outline" x="60" y="10" width="22" height="22"/>
    <use href="#star-outline" x="90" y="10" width="22" height="22"/>
    <use href="#star-outline" x="120" y="10" width="22" height="22"/>
  </g>

  <text x="30" y="362" class="label" font-weight="700">What helped your learning?</text>
  <g stroke="#d1d5db" stroke-width="1.4" fill="#ffffff">
    <rect x="30" y="372" width="16" height="16" rx="3"/>
    <rect x="210" y="372" width="16" height="16" rx="3"/>
    <rect x="30" y="396" width="16" height="16" rx="3"/>
    <rect x="210" y="396" width="16" height="16" rx="3"/>
    <rect x="30" y="420" width="16" height="16" rx="3"/>
  </g>
  <text x="52" y="385" class="label">Clear explanations</text>
  <text x="232" y="385" class="label">Real-world examples</text>
  <text x="52" y="409" class="label">Exercises &amp; assignments</text>
  <text x="232" y="409" class="label">Visual materials</text>
  <text x="52" y="433" class="label">Case studies</text>

  <text x="30" y="472" class="label" font-weight="700">Suggestions for improvement</text>
  <rect x="30" y="482" width="340" height="70" rx="6" fill="#f9fafb" stroke="#d1d5db" stroke-width="1"/>
  <text x="40" y="506" class="label placeholder">Share ideas to improve the content</text>
</svg>
