<svg xmlns="http://www.w3.org/2000/svg" role="img" aria-hidden="true" focusable="false" width="24" height="24" viewBox="0 0 24 24" fill="none">
    <path fill-rule="evenodd" clip-rule="evenodd" d="M11.9466 6.03448H12.0533C12.9748 6.03445 14.7689 6.03442 15.3789 6.11715C16.0228 6.20446 16.6042 6.39653 17.0713 6.86771C17.5385 7.33889 17.7289 7.92523 17.8155 8.57467C17.8975 9.18997 17.8974 9.96502 17.8974 10.8945V14.1055C17.8974 15.035 17.8975 15.81 17.8155 16.4253C17.7289 17.0748 17.5385 17.6611 17.0713 18.1323C16.6042 18.6035 16.0228 18.7955 15.3789 18.8828C14.7689 18.9656 12.9748 18.9655 12.0533 18.9655H11.9467C11.0251 18.9655 9.23106 18.9656 8.62102 18.8828C7.97713 18.7955 7.3958 18.6035 6.92865 18.1323C6.4615 17.6611 6.27107 17.0748 6.1845 16.4253C6.10248 15.81 6.10251 15.035 6.10254 14.1055V10.8945C6.10251 9.96502 6.10248 9.18997 6.1845 8.57467C6.27107 7.92523 6.4615 7.33889 6.92865 6.86771C7.3958 6.39653 7.97713 6.20446 8.62102 6.11715C9.23106 6.03442 11.0251 6.03445 11.9466 6.03448ZM8.82602 7.65503C8.35273 7.71921 8.15016 7.83013 8.01651 7.96494C7.88285 8.09975 7.77288 8.30406 7.70924 8.78144C7.64264 9.28113 7.641 9.95102 7.641 10.9483V14.0517C7.641 15.049 7.64264 15.7189 7.70924 16.2186C7.77288 16.6959 7.88285 16.9002 8.01651 17.035C8.15016 17.1699 8.35273 17.2808 8.82602 17.345C9.32144 17.4121 9.98561 17.4138 12 17.4138C12.9887 17.4138 14.6785 17.4121 15.1739 17.345C15.6472 17.2808 15.8498 17.1699 15.9834 17.035C16.1171 16.9002 16.2271 16.6959 16.2907 16.2186C16.3573 15.7189 16.359 15.049 16.359 14.0517V10.9483C16.359 9.95102 16.3573 9.28113 16.2907 8.78144C16.2271 8.30406 16.1171 8.09975 15.9834 7.96494C15.8498 7.83013 15.6472 7.71921 15.1739 7.65503C14.6785 7.58785 12.9887 7.5862 12 7.5862C9.98561 7.5862 9.32144 7.58785 8.82602 7.65503Z" fill="currentColor"/>
    <path d="M21.9961 9.75C22.4061 9.75 22.7461 9.41 22.7461 9C22.7461 4.73 19.2661 1.25 14.9961 1.25C14.7261 1.25 14.4761 1.4 14.3461 1.63C14.2161 1.86 14.2161 2.15 14.3561 2.38L15.4061 4.14C15.6161 4.49 16.0761 4.61 16.4361 4.39C16.7861 4.18 16.9061 3.72 16.6861 3.36L16.4161 2.91C19.1861 3.56 21.2461 6.04 21.2461 9C21.2461 9.41 21.5861 9.75 21.9961 9.75Z" fill="currentColor"/>
</svg>